<?xml version="1.0" encoding="UTF-8"?>
<svg id="Data_itneraction" data-name="Data itneraction" xmlns="http://www.w3.org/2000/svg" viewBox="0 0 1080 1080">
  <defs>
    <style>
      .cls-1 {
        font-size: 13.53px;
      }

      .cls-1, .cls-2 {
        font-family: ABCSocialMonoVariableUnlicensedTrial-Regular, 'ABC Social Mono Variable Unlicensed Trial';
        font-variation-settings: 'wght' 400, 'wdth' 5, 'ital' 0;
      }

      .cls-3 {
        stroke-dasharray: 2.91 2.91;
        stroke-width: .26px;
      }

      .cls-3, .cls-4, .cls-5, .cls-6, .cls-7 {
        fill: none;
        stroke: #000;
        stroke-miterlimit: 10;
      }

      .cls-2 {
        font-size: 12px;
      }

      .cls-4 {
        stroke-dasharray: 3.16 3.16;
        stroke-width: .28px;
      }

      .cls-5 {
        stroke-dasharray: 2.98 2.98;
        stroke-width: .26px;
      }

      .cls-6 {
        stroke-dasharray: 2.98 2.98;
      }

      .cls-6, .cls-7 {
        stroke-width: .26px;
      }
    </style>
  </defs>
  <g id="Dagram">
    <text class="cls-1" transform="translate(612.83 452.26) rotate(3.44) scale(.91 1)"><tspan x="0" y="0">I</tspan></text>
    <text class="cls-1" transform="translate(619.89 452.68) rotate(3.77) scale(.91 1)"><tspan x="0" y="0">n</tspan></text>
    <text class="cls-1" transform="translate(626.96 453.15) rotate(4.11) scale(.91 1)"><tspan x="0" y="0">t</tspan></text>
    <text class="cls-1" transform="translate(634.01 453.66) rotate(4.45) scale(.91 1)"><tspan x="0" y="0">e</tspan></text>
    <text class="cls-1" transform="translate(641.07 454.21) rotate(4.8) scale(.91 1)"><tspan x="0" y="0">r</tspan></text>
    <text class="cls-1" transform="translate(648.11 454.8) rotate(5.15) scale(.91 1)"><tspan x="0" y="0">f</tspan></text>
    <text class="cls-1" transform="translate(655.14 455.43) rotate(5.5) scale(.91 1)"><tspan x="0" y="0">a</tspan></text>
    <text class="cls-1" transform="translate(662.21 456.11) rotate(5.86) scale(.91 1)"><tspan x="0" y="0">c</tspan></text>
    <text class="cls-1" transform="translate(669.24 456.83) rotate(6.23) scale(.91 1)"><tspan x="0" y="0">e</tspan></text>
    <text class="cls-1" transform="translate(676.26 457.6) rotate(6.61) scale(.91 1)"><tspan x="0" y="0"> </tspan></text>
    <text class="cls-1" transform="translate(683.46 458.43) rotate(7) scale(.91 1)"><tspan x="0" y="0">I</tspan></text>
    <text class="cls-1" transform="translate(690.48 459.3) rotate(7.39) scale(.91 1)"><tspan x="0" y="0">n</tspan></text>
    <text class="cls-1" transform="translate(697.48 460.2) rotate(7.79) scale(.91 1)"><tspan x="0" y="0">t</tspan></text>
    <text class="cls-1" transform="translate(704.49 461.16) rotate(8.2) scale(.91 1)"><tspan x="0" y="0">e</tspan></text>
    <text class="cls-1" transform="translate(711.49 462.17) rotate(8.62) scale(.91 1)"><tspan x="0" y="0">r</tspan></text>
    <text class="cls-1" transform="translate(718.49 463.23) rotate(9.05) scale(.91 1)"><tspan x="0" y="0">f</tspan></text>
    <text class="cls-1" transform="translate(725.48 464.34) rotate(9.5) scale(.91 1)"><tspan x="0" y="0">a</tspan></text>
    <text class="cls-1" transform="translate(732.45 465.51) rotate(9.96) scale(.91 1)"><tspan x="0" y="0">c</tspan></text>
    <text class="cls-1" transform="translate(739.4 466.73) rotate(10.44) scale(.91 1)"><tspan x="0" y="0">e</tspan></text>
    <text class="cls-1" transform="translate(746.37 468.02) rotate(10.94) scale(.91 1)"><tspan x="0" y="0"> </tspan></text>
    <text class="cls-1" transform="translate(753.46 469.39) rotate(11.47) scale(.91 1)"><tspan x="0" y="0">I</tspan></text>
    <text class="cls-1" transform="translate(760.39 470.79) rotate(12.01) scale(.91 1)"><tspan x="0" y="0">n</tspan></text>
    <text class="cls-1" transform="translate(767.29 472.26) rotate(12.58) scale(.91 1)"><tspan x="0" y="0">t</tspan></text>
    <text class="cls-1" transform="translate(774.18 473.8) rotate(13.18) scale(.91 1)"><tspan x="0" y="0">e</tspan></text>
    <text class="cls-1" transform="translate(781.07 475.41) rotate(13.81) scale(.91 1)"><tspan x="0" y="0">r</tspan></text>
    <text class="cls-1" transform="translate(787.94 477.1) rotate(14.48) scale(.91 1)"><tspan x="0" y="0">f</tspan></text>
    <text class="cls-1" transform="translate(794.78 478.86) rotate(15.19) scale(.91 1)"><tspan x="0" y="0">a</tspan></text>
    <text class="cls-1" transform="translate(801.58 480.71) rotate(15.95) scale(.91 1)"><tspan x="0" y="0">c</tspan></text>
    <text class="cls-1" transform="translate(808.35 482.64) rotate(16.77) scale(.91 1)"><tspan x="0" y="0">e</tspan></text>
    <text class="cls-1" transform="translate(815.12 484.68) rotate(17.66) scale(.91 1)"><tspan x="0" y="0"> </tspan></text>
    <text class="cls-1" transform="translate(821.99 486.86) rotate(18.65) scale(.91 1)"><tspan x="0" y="0">I</tspan></text>
    <text class="cls-1" transform="translate(828.68 489.12) rotate(19.72) scale(.91 1)"><tspan x="0" y="0">n</tspan></text>
    <text class="cls-1" transform="translate(835.29 491.49) rotate(20.9) scale(.91 1)"><tspan x="0" y="0">t</tspan></text>
    <text class="cls-1" transform="translate(841.89 494.01) rotate(22.24) scale(.91 1)"><tspan x="0" y="0">e</tspan></text>
    <text class="cls-1" transform="translate(848.38 496.66) rotate(23.75) scale(.91 1)"><tspan x="0" y="0">r</tspan></text>
    <text class="cls-1" transform="translate(854.81 499.49) rotate(25.5) scale(.91 1)"><tspan x="0" y="0">f</tspan></text>
    <text class="cls-1" transform="translate(861.13 502.49) rotate(27.54) scale(.91 1)"><tspan x="0" y="0">a</tspan></text>
    <text class="cls-1" transform="translate(867.34 505.72) rotate(29.99) scale(.91 1)"><tspan x="0" y="0">c</tspan></text>
    <text class="cls-1" transform="translate(873.39 509.2) rotate(32.99) scale(.91 1)"><tspan x="0" y="0">e</tspan></text>
    <text class="cls-1" transform="translate(879.23 512.97) rotate(36.78) scale(.91 1)"><tspan x="0" y="0"> </tspan></text>
    <text class="cls-1" transform="translate(884.9 517.2) rotate(41.87) scale(.91 1)"><tspan x="0" y="0">I</tspan></text>
    <text class="cls-1" transform="translate(890.01 521.72) rotate(48.62) scale(.91 1)"><tspan x="0" y="0">n</tspan></text>
    <text class="cls-1" transform="translate(894.52 526.75) rotate(58.1) scale(.91 1)"><tspan x="0" y="0">t</tspan></text>
    <text class="cls-1" transform="translate(898.09 532.31) rotate(71.27) scale(.91 1)"><tspan x="0" y="0">e</tspan></text>
    <text class="cls-1" transform="translate(900.16 538.41) rotate(86.06) scale(.91 1)"><tspan x="0" y="0">r</tspan></text>
    <text class="cls-1" transform="translate(900.58 544.92) rotate(105.8) scale(.91 1)"><tspan x="0" y="0">f</tspan></text>
    <text class="cls-1" transform="translate(898.81 551.25) rotate(120.35) scale(.91 1)"><tspan x="0" y="0">a</tspan></text>
    <text class="cls-1" transform="translate(895.43 557.02) rotate(130.9) scale(.91 1)"><tspan x="0" y="0">c</tspan></text>
    <text class="cls-1" transform="translate(890.97 562.16) rotate(138.4) scale(.91 1)"><tspan x="0" y="0">e</tspan></text>
    <text class="cls-1" transform="translate(885.81 566.73) rotate(143.86) scale(.91 1)"><tspan x="0" y="0"> </tspan></text>
    <text class="cls-1" transform="translate(880.08 570.9) rotate(148.04) scale(.91 1)"><tspan x="0" y="0">I</tspan></text>
    <text class="cls-1" transform="translate(874.17 574.59) rotate(151.22) scale(.91 1)"><tspan x="0" y="0">n</tspan></text>
    <text class="cls-1" transform="translate(868.02 577.96) rotate(153.79) scale(.91 1)"><tspan x="0" y="0">t</tspan></text>
    <text class="cls-1" transform="translate(861.76 581.04) rotate(155.9) scale(.91 1)"><tspan x="0" y="0">e</tspan></text>
    <text class="cls-1" transform="translate(855.33 583.91) rotate(157.7) scale(.91 1)"><tspan x="0" y="0">r</tspan></text>
    <text class="cls-1" transform="translate(848.84 586.57) rotate(159.23) scale(.91 1)"><tspan x="0" y="0">f</tspan></text>
    <text class="cls-1" transform="translate(842.25 589.07) rotate(160.58) scale(.91 1)"><tspan x="0" y="0">a</tspan></text>
    <text class="cls-1" transform="translate(835.6 591.41) rotate(161.77) scale(.91 1)"><tspan x="0" y="0">c</tspan></text>
    <text class="cls-1" transform="translate(828.92 593.61) rotate(162.83) scale(.91 1)"><tspan x="0" y="0">e</tspan></text>
    <text class="cls-1" transform="translate(822.18 595.69) rotate(163.79) scale(.91 1)"><tspan x="0" y="0"> </tspan></text>
    <text class="cls-1" transform="translate(815.25 597.71) rotate(164.69) scale(.91 1)"><tspan x="0" y="0">I</tspan></text>
    <text class="cls-1" transform="translate(808.44 599.57) rotate(165.49) scale(.91 1)"><tspan x="0" y="0">n</tspan></text>
    <text class="cls-1" transform="translate(801.59 601.34) rotate(166.23) scale(.91 1)"><tspan x="0" y="0">t</tspan></text>
    <text class="cls-1" transform="translate(794.75 603.02) rotate(166.91) scale(.91 1)"><tspan x="0" y="0">e</tspan></text>
    <text class="cls-1" transform="translate(787.87 604.62) rotate(167.56) scale(.91 1)"><tspan x="0" y="0">r</tspan></text>
    <text class="cls-1" transform="translate(780.97 606.14) rotate(168.16) scale(.91 1)"><tspan x="0" y="0">f</tspan></text>
    <text class="cls-1" transform="translate(774.05 607.59) rotate(168.73) scale(.91 1)"><tspan x="0" y="0">a</tspan></text>
    <text class="cls-1" transform="translate(767.13 608.97) rotate(169.26) scale(.91 1)"><tspan x="0" y="0">c</tspan></text>
    <text class="cls-1" transform="translate(760.18 610.29) rotate(169.77) scale(.91 1)"><tspan x="0" y="0">e</tspan></text>
    <text class="cls-1" transform="translate(753.23 611.54) rotate(170.26) scale(.91 1)"><tspan x="0" y="0"> </tspan></text>
    <text class="cls-1" transform="translate(746.1 612.76) rotate(170.73) scale(.91 1)"><tspan x="0" y="0">I</tspan></text>
    <text class="cls-1" transform="translate(739.1 613.91) rotate(171.18) scale(.91 1)"><tspan x="0" y="0">n</tspan></text>
    <text class="cls-1" transform="translate(732.14 614.99) rotate(171.61) scale(.91 1)"><tspan x="0" y="0">t</tspan></text>
    <text class="cls-1" transform="translate(725.12 616.02) rotate(172.02) scale(.91 1)"><tspan x="0" y="0">e</tspan></text>
    <text class="cls-1" transform="translate(718.12 617) rotate(172.42) scale(.91 1)"><tspan x="0" y="0">r</tspan></text>
    <text class="cls-1" transform="translate(711.12 617.94) rotate(172.8) scale(.91 1)"><tspan x="0" y="0">f</tspan></text>
    <text class="cls-1" transform="translate(704.08 618.82) rotate(173.18) scale(.91 1)"><tspan x="0" y="0">a</tspan></text>
    <text class="cls-1" transform="translate(697.08 619.66) rotate(173.54) scale(.91 1)"><tspan x="0" y="0">c</tspan></text>
    <text class="cls-1" transform="translate(690.03 620.46) rotate(173.89) scale(.91 1)"><tspan x="0" y="0">e</tspan></text>
    <text class="cls-1" transform="translate(683.01 621.21) rotate(174.24) scale(.91 1)"><tspan x="0" y="0"> </tspan></text>
    <text class="cls-1" transform="translate(675.81 621.94) rotate(174.58) scale(.91 1)"><tspan x="0" y="0">I</tspan></text>
    <text class="cls-1" transform="translate(668.75 622.61) rotate(174.91) scale(.91 1)"><tspan x="0" y="0">n</tspan></text>
    <text class="cls-1" transform="translate(661.71 623.23) rotate(175.23) scale(.91 1)"><tspan x="0" y="0">t</tspan></text>
    <text class="cls-1" transform="translate(654.64 623.82) rotate(175.55) scale(.91 1)"><tspan x="0" y="0">e</tspan></text>
    <text class="cls-1" transform="translate(647.61 624.37) rotate(175.86) scale(.91 1)"><tspan x="0" y="0">r</tspan></text>
    <text class="cls-1" transform="translate(640.55 624.88) rotate(176.17) scale(.91 1)"><tspan x="0" y="0">f</tspan></text>
    <text class="cls-1" transform="translate(633.5 625.35) rotate(176.47) scale(.91 1)"><tspan x="0" y="0">a</tspan></text>
    <text class="cls-1" transform="translate(626.42 625.79) rotate(176.76) scale(.91 1)"><tspan x="0" y="0">c</tspan></text>
    <text class="cls-1" transform="translate(619.36 626.19) rotate(177.05) scale(.91 1)"><tspan x="0" y="0">e</tspan></text>
    <text class="cls-1" transform="translate(612.28 626.55) rotate(177.34) scale(.91 1)"><tspan x="0" y="0"> </tspan></text>
    <text class="cls-1" transform="translate(605.05 626.89) rotate(177.63) scale(.91 1)"><tspan x="0" y="0">I</tspan></text>
    <text class="cls-1" transform="translate(597.98 627.18) rotate(177.91) scale(.91 1)"><tspan x="0" y="0">n</tspan></text>
    <text class="cls-1" transform="translate(590.91 627.44) rotate(178.19) scale(.91 1)"><tspan x="0" y="0">t</tspan></text>
    <text class="cls-1" transform="translate(583.84 627.66) rotate(178.47) scale(.91 1)"><tspan x="0" y="0">e</tspan></text>
    <text class="cls-1" transform="translate(576.76 627.85) rotate(178.74) scale(.91 1)"><tspan x="0" y="0">r</tspan></text>
    <text class="cls-1" transform="translate(569.68 628.01) rotate(179.02) scale(.91 1)"><tspan x="0" y="0">f</tspan></text>
    <text class="cls-1" transform="translate(562.62 628.13) rotate(179.29) scale(.91 1)"><tspan x="0" y="0">a</tspan></text>
    <text class="cls-1" transform="translate(555.53 628.22) rotate(179.56) scale(.91 1)"><tspan x="0" y="0">c</tspan></text>
    <text class="cls-1" transform="translate(548.45 628.27) rotate(179.78) scale(.91 1)"><tspan x="0" y="0">e</tspan></text>
    <text class="cls-1" transform="translate(541.39 628.3) rotate(-179.78) scale(.91 1)"><tspan x="0" y="0">I</tspan></text>
    <text class="cls-1" transform="translate(534.28 628.28) rotate(-179.64) scale(.91 1)"><tspan x="0" y="0">n</tspan></text>
    <text class="cls-1" transform="translate(527.2 628.24) rotate(-179.37) scale(.91 1)"><tspan x="0" y="0">t</tspan></text>
    <text class="cls-1" transform="translate(520.14 628.16) rotate(-179.1) scale(.91 1)"><tspan x="0" y="0">e</tspan></text>
    <text class="cls-1" transform="translate(513.05 628.05) rotate(-178.83) scale(.91 1)"><tspan x="0" y="0">r</tspan></text>
    <text class="cls-1" transform="translate(505.97 627.9) rotate(-178.56) scale(.91 1)"><tspan x="0" y="0">f</tspan></text>
    <text class="cls-1" transform="translate(498.91 627.73) rotate(-178.28) scale(.91 1)"><tspan x="0" y="0">a</tspan></text>
    <text class="cls-1" transform="translate(491.84 627.51) rotate(-178) scale(.91 1)"><tspan x="0" y="0">c</tspan></text>
    <text class="cls-1" transform="translate(484.76 627.27) rotate(-177.72) scale(.91 1)"><tspan x="0" y="0">e</tspan></text>
    <text class="cls-1" transform="translate(477.68 626.99) rotate(-177.44) scale(.91 1)"><tspan x="0" y="0"> </tspan></text>
    <text class="cls-1" transform="translate(470.45 626.66) rotate(-177.14) scale(.91 1)"><tspan x="0" y="0">I</tspan></text>
    <text class="cls-1" transform="translate(463.4 626.31) rotate(-176.85) scale(.91 1)"><tspan x="0" y="0">n</tspan></text>
    <text class="cls-1" transform="translate(456.33 625.92) rotate(-176.56) scale(.91 1)"><tspan x="0" y="0">t</tspan></text>
    <text class="cls-1" transform="translate(449.27 625.5) rotate(-176.26) scale(.91 1)"><tspan x="0" y="0">e</tspan></text>
    <text class="cls-1" transform="translate(442.19 625.03) rotate(-175.96) scale(.91 1)"><tspan x="0" y="0">r</tspan></text>
    <text class="cls-1" transform="translate(435.13 624.54) rotate(-175.65) scale(.91 1)"><tspan x="0" y="0">f</tspan></text>
    <text class="cls-1" transform="translate(428.09 624) rotate(-175.33) scale(.91 1)"><tspan x="0" y="0">a</tspan></text>
    <text class="cls-1" transform="translate(421.04 623.42) rotate(-175.01) scale(.91 1)"><tspan x="0" y="0">c</tspan></text>
    <text class="cls-1" transform="translate(413.99 622.81) rotate(-174.69) scale(.91 1)"><tspan x="0" y="0">e</tspan></text>
    <text class="cls-1" transform="translate(406.94 622.15) rotate(-174.35) scale(.91 1)"><tspan x="0" y="0"> </tspan></text>
    <text class="cls-1" transform="translate(399.74 621.44) rotate(-174) scale(.91 1)"><tspan x="0" y="0">I</tspan></text>
    <text class="cls-1" transform="translate(392.69 620.7) rotate(-173.65) scale(.91 1)"><tspan x="0" y="0">n</tspan></text>
    <text class="cls-1" transform="translate(385.66 619.92) rotate(-173.29) scale(.91 1)"><tspan x="0" y="0">t</tspan></text>
    <text class="cls-1" transform="translate(378.65 619.1) rotate(-172.92) scale(.91 1)"><tspan x="0" y="0">e</tspan></text>
    <text class="cls-1" transform="translate(371.64 618.23) rotate(-172.54) scale(.91 1)"><tspan x="0" y="0">r</tspan></text>
    <text class="cls-1" transform="translate(364.6 617.3) rotate(-172.15) scale(.91 1)"><tspan x="0" y="0">f</tspan></text>
    <text class="cls-1" transform="translate(357.61 616.34) rotate(-171.74) scale(.91 1)"><tspan x="0" y="0">a</tspan></text>
    <text class="cls-1" transform="translate(350.6 615.32) rotate(-171.32) scale(.91 1)"><tspan x="0" y="0">c</tspan></text>
    <text class="cls-1" transform="translate(343.61 614.26) rotate(-170.88) scale(.91 1)"><tspan x="0" y="0">e</tspan></text>
    <text class="cls-1" transform="translate(336.63 613.13) rotate(-170.42) scale(.91 1)"><tspan x="0" y="0"> </tspan></text>
    <text class="cls-1" transform="translate(329.49 611.93) rotate(-169.93) scale(.91 1)"><tspan x="0" y="0">I</tspan></text>
    <text class="cls-1" transform="translate(322.54 610.7) rotate(-169.43) scale(.91 1)"><tspan x="0" y="0">n</tspan></text>
    <text class="cls-1" transform="translate(315.59 609.4) rotate(-168.9) scale(.91 1)"><tspan x="0" y="0">t</tspan></text>
    <text class="cls-1" transform="translate(308.66 608.04) rotate(-168.34) scale(.91 1)"><tspan x="0" y="0">e</tspan></text>
    <text class="cls-1" transform="translate(301.75 606.61) rotate(-167.75) scale(.91 1)"><tspan x="0" y="0">r</tspan></text>
    <text class="cls-1" transform="translate(294.84 605.12) rotate(-167.12) scale(.91 1)"><tspan x="0" y="0">f</tspan></text>
    <text class="cls-1" transform="translate(287.95 603.54) rotate(-166.45) scale(.91 1)"><tspan x="0" y="0">a</tspan></text>
    <text class="cls-1" transform="translate(281.09 601.89) rotate(-165.73) scale(.91 1)"><tspan x="0" y="0">c</tspan></text>
    <text class="cls-1" transform="translate(274.25 600.15) rotate(-164.95) scale(.91 1)"><tspan x="0" y="0">e</tspan></text>
    <text class="cls-1" transform="translate(267.42 598.31) rotate(-164.1) scale(.91 1)"><tspan x="0" y="0"> </tspan></text>
    <text class="cls-1" transform="translate(260.5 596.34) rotate(-163.15) scale(.91 1)"><tspan x="0" y="0">I</tspan></text>
    <text class="cls-1" transform="translate(253.76 594.3) rotate(-162.12) scale(.91 1)"><tspan x="0" y="0">n</tspan></text>
    <text class="cls-1" transform="translate(247.04 592.14) rotate(-160.97) scale(.91 1)"><tspan x="0" y="0">t</tspan></text>
    <text class="cls-1" transform="translate(240.4 589.85) rotate(-159.68) scale(.91 1)"><tspan x="0" y="0">e</tspan></text>
    <text class="cls-1" transform="translate(233.8 587.41) rotate(-158.21) scale(.91 1)"><tspan x="0" y="0">r</tspan></text>
    <text class="cls-1" transform="translate(227.26 584.8) rotate(-156.5) scale(.91 1)"><tspan x="0" y="0">f</tspan></text>
    <text class="cls-1" transform="translate(220.84 582.01) rotate(-154.5) scale(.91 1)"><tspan x="0" y="0">a</tspan></text>
    <text class="cls-1" transform="translate(214.52 579.01) rotate(-152.09) scale(.91 1)"><tspan x="0" y="0">c</tspan></text>
    <text class="cls-1" transform="translate(208.36 575.75) rotate(-149.13) scale(.91 1)"><tspan x="0" y="0">e</tspan></text>
    <text class="cls-1" transform="translate(202.39 572.2) rotate(-145.38) scale(.91 1)"><tspan x="0" y="0"> </tspan></text>
    <text class="cls-1" transform="translate(196.55 568.19) rotate(-140.3) scale(.91 1)"><tspan x="0" y="0">I</tspan></text>
    <text class="cls-1" transform="translate(191.28 563.87) rotate(-133.58) scale(.91 1)"><tspan x="0" y="0">n</tspan></text>
    <text class="cls-1" transform="translate(186.59 559.02) rotate(-124.1) scale(.91 1)"><tspan x="0" y="0">t</tspan></text>
    <text class="cls-1" transform="translate(182.79 553.59) rotate(-110.85) scale(.91 1)"><tspan x="0" y="0">e</tspan></text>
    <text class="cls-1" transform="translate(180.37 547.53) rotate(-93.95) scale(.91 1)"><tspan x="0" y="0">r</tspan></text>
    <text class="cls-1" transform="translate(179.85 541.09) rotate(-76.31) scale(.91 1)"><tspan x="0" y="0">f</tspan></text>
    <text class="cls-1" transform="translate(181.38 534.72) rotate(-61.86) scale(.91 1)"><tspan x="0" y="0">a</tspan></text>
    <text class="cls-1" transform="translate(184.55 528.79) rotate(-51.28) scale(.91 1)"><tspan x="0" y="0">c</tspan></text>
    <text class="cls-1" transform="translate(188.81 523.49) rotate(-43.78) scale(.91 1)"><tspan x="0" y="0">e</tspan></text>
    <text class="cls-1" transform="translate(193.78 518.73) rotate(-38.31) scale(.91 1)"><tspan x="0" y="0"> </tspan></text>
    <text class="cls-1" transform="translate(199.36 514.34) rotate(-34.1) scale(.91 1)"><tspan x="0" y="0">I</tspan></text>
    <text class="cls-1" transform="translate(205.13 510.44) rotate(-30.87) scale(.91 1)"><tspan x="0" y="0">n</tspan></text>
    <text class="cls-1" transform="translate(211.13 506.86) rotate(-28.27) scale(.91 1)"><tspan x="0" y="0">t</tspan></text>
    <text class="cls-1" transform="translate(217.3 503.54) rotate(-26.11) scale(.91 1)"><tspan x="0" y="0">e</tspan></text>
    <text class="cls-1" transform="translate(223.59 500.46) rotate(-24.28) scale(.91 1)"><tspan x="0" y="0">r</tspan></text>
    <text class="cls-1" transform="translate(230.02 497.56) rotate(-22.7) scale(.91 1)"><tspan x="0" y="0">f</tspan></text>
    <text class="cls-1" transform="translate(236.5 494.85) rotate(-21.31) scale(.91 1)"><tspan x="0" y="0">a</tspan></text>
    <text class="cls-1" transform="translate(243.05 492.3) rotate(-20.08) scale(.91 1)"><tspan x="0" y="0">c</tspan></text>
    <text class="cls-1" transform="translate(249.67 489.88) rotate(-18.98) scale(.91 1)"><tspan x="0" y="0">e</tspan></text>
    <text class="cls-1" transform="translate(256.35 487.58) rotate(-17.98) scale(.91 1)"><tspan x="0" y="0"> </tspan></text>
    <text class="cls-1" transform="translate(263.2 485.36) rotate(-17.04) scale(.91 1)"><tspan x="0" y="0">I</tspan></text>
    <text class="cls-1" transform="translate(269.95 483.29) rotate(-16.2) scale(.91 1)"><tspan x="0" y="0">n</tspan></text>
    <text class="cls-1" transform="translate(276.73 481.32) rotate(-15.42) scale(.91 1)"><tspan x="0" y="0">t</tspan></text>
    <text class="cls-1" transform="translate(283.53 479.44) rotate(-14.7) scale(.91 1)"><tspan x="0" y="0">e</tspan></text>
    <text class="cls-1" transform="translate(290.38 477.65) rotate(-14.01) scale(.91 1)"><tspan x="0" y="0">r</tspan></text>
    <text class="cls-1" transform="translate(297.22 475.94) rotate(-13.37) scale(.91 1)"><tspan x="0" y="0">f</tspan></text>
    <text class="cls-1" transform="translate(304.09 474.31) rotate(-12.77) scale(.91 1)"><tspan x="0" y="0">a</tspan></text>
    <text class="cls-1" transform="translate(310.99 472.75) rotate(-12.19) scale(.91 1)"><tspan x="0" y="0">c</tspan></text>
    <text class="cls-1" transform="translate(317.89 471.26) rotate(-11.64) scale(.91 1)"><tspan x="0" y="0">e</tspan></text>
    <text class="cls-1" transform="translate(324.82 469.83) rotate(-11.11) scale(.91 1)"><tspan x="0" y="0"> </tspan></text>
    <text class="cls-1" transform="translate(331.93 468.43) rotate(-10.6) scale(.91 1)"><tspan x="0" y="0">I</tspan></text>
    <text class="cls-1" transform="translate(338.85 467.14) rotate(-10.11) scale(.91 1)"><tspan x="0" y="0">n</tspan></text>
    <text class="cls-1" transform="translate(345.84 465.89) rotate(-9.64) scale(.91 1)"><tspan x="0" y="0">t</tspan></text>
    <text class="cls-1" transform="translate(352.79 464.71) rotate(-9.19) scale(.91 1)"><tspan x="0" y="0">e</tspan></text>
    <text class="cls-1" transform="translate(359.78 463.58) rotate(-8.76) scale(.91 1)"><tspan x="0" y="0">r</tspan></text>
    <text class="cls-1" transform="translate(366.77 462.5) rotate(-8.33) scale(.91 1)"><tspan x="0" y="0">f</tspan></text>
    <text class="cls-1" transform="translate(373.78 461.48) rotate(-7.92) scale(.91 1)"><tspan x="0" y="0">a</tspan></text>
    <text class="cls-1" transform="translate(380.77 460.5) rotate(-7.51) scale(.91 1)"><tspan x="0" y="0">c</tspan></text>
    <text class="cls-1" transform="translate(387.76 459.58) rotate(-7.12) scale(.91 1)"><tspan x="0" y="0">e</tspan></text>
    <text class="cls-1" transform="translate(394.8 458.7) rotate(-6.74) scale(.91 1)"><tspan x="0" y="0"> </tspan></text>
    <text class="cls-1" transform="translate(401.98 457.86) rotate(-6.35) scale(.91 1)"><tspan x="0" y="0">I</tspan></text>
    <text class="cls-1" transform="translate(409.02 457.07) rotate(-5.98) scale(.91 1)"><tspan x="0" y="0">n</tspan></text>
    <text class="cls-1" transform="translate(416.06 456.33) rotate(-5.62) scale(.91 1)"><tspan x="0" y="0">t</tspan></text>
    <text class="cls-1" transform="translate(423.1 455.64) rotate(-5.26) scale(.91 1)"><tspan x="0" y="0">e</tspan></text>
    <text class="cls-1" transform="translate(430.14 454.99) rotate(-4.91) scale(.91 1)"><tspan x="0" y="0">r</tspan></text>
    <text class="cls-1" transform="translate(437.18 454.39) rotate(-4.56) scale(.91 1)"><tspan x="0" y="0">f</tspan></text>
    <text class="cls-1" transform="translate(444.25 453.83) rotate(-4.22) scale(.91 1)"><tspan x="0" y="0">a</tspan></text>
    <text class="cls-1" transform="translate(451.3 453.31) rotate(-3.88) scale(.91 1)"><tspan x="0" y="0">c</tspan></text>
    <text class="cls-1" transform="translate(458.34 452.83) rotate(-3.55) scale(.91 1)"><tspan x="0" y="0">e</tspan></text>
    <text class="cls-1" transform="translate(465.4 452.39) rotate(-3.22) scale(.91 1)"><tspan x="0" y="0"> </tspan></text>
    <text class="cls-1" transform="translate(472.64 451.99) rotate(-2.88) scale(.91 1)"><tspan x="0" y="0">I</tspan></text>
    <text class="cls-1" transform="translate(479.7 451.63) rotate(-2.55) scale(.91 1)"><tspan x="0" y="0">n</tspan></text>
    <text class="cls-1" transform="translate(486.78 451.31) rotate(-2.23) scale(.91 1)"><tspan x="0" y="0">t</tspan></text>
    <text class="cls-1" transform="translate(493.83 451.04) rotate(-1.91) scale(.91 1)"><tspan x="0" y="0">e</tspan></text>
    <text class="cls-1" transform="translate(500.91 450.8) rotate(-1.59) scale(.91 1)"><tspan x="0" y="0">r</tspan></text>
    <text class="cls-1" transform="translate(508 450.61) rotate(-1.27) scale(.91 1)"><tspan x="0" y="0">f</tspan></text>
    <text class="cls-1" transform="translate(515.06 450.45) rotate(-.96) scale(.91 1)"><tspan x="0" y="0">a</tspan></text>
    <text class="cls-1" transform="translate(522.13 450.33) rotate(-.64) scale(.91 1)"><tspan x="0" y="0">c</tspan></text>
    <text class="cls-1" transform="translate(529.22 450.25) rotate(-.33) scale(.91 1)"><tspan x="0" y="0">e</tspan></text>
    <text class="cls-1" transform="translate(536.3 450.23) rotate(-.26) scale(.91 1)"><tspan x="0" y="0"> </tspan></text>
    <text class="cls-1" transform="translate(543.54 450.21) rotate(.3) scale(.91 1)"><tspan x="0" y="0">I</tspan></text>
    <text class="cls-1" transform="translate(550.61 450.24) rotate(.62) scale(.91 1)"><tspan x="0" y="0">n</tspan></text>
    <text class="cls-1" transform="translate(557.68 450.32) rotate(.93) scale(.91 1)"><tspan x="0" y="0">t</tspan></text>
    <text class="cls-1" transform="translate(564.78 450.44) rotate(1.25) scale(.91 1)"><tspan x="0" y="0">e</tspan></text>
    <text class="cls-1" transform="translate(571.83 450.59) rotate(1.56) scale(.91 1)"><tspan x="0" y="0">r</tspan></text>
    <text class="cls-1" transform="translate(578.91 450.78) rotate(1.88) scale(.91 1)"><tspan x="0" y="0">f</tspan></text>
    <text class="cls-1" transform="translate(585.99 451.02) rotate(2.2) scale(.91 1)"><tspan x="0" y="0">a</tspan></text>
    <text class="cls-1" transform="translate(593.06 451.29) rotate(2.52) scale(.91 1)"><tspan x="0" y="0">c</tspan></text>
    <text class="cls-1" transform="translate(600.12 451.6) rotate(2.85) scale(.91 1)"><tspan x="0" y="0">e</tspan></text>
    <text class="cls-1" transform="translate(607.2 451.95) rotate(3.18) scale(.91 1)"><tspan x="0" y="0"> </tspan></text>
    <g>
      <line class="cls-7" x1="540.25" y1="656.59" x2="540.25" y2="658.09"/>
      <line class="cls-6" x1="540.25" y1="661.07" x2="540.25" y2="939.45"/>
      <line class="cls-7" x1="540.25" y1="940.94" x2="540.25" y2="942.44"/>
      <polygon points="537.62 657.36 540.25 652.8 542.88 657.36 537.62 657.36"/>
    </g>
    <g>
      <path class="cls-4" d="M450.08,450.21c0-136.58-46.15-268.04-129.93-270.1"/>
      <polygon points="320.58 178.75 318.15 180.08 320.52 181.53 320.58 178.75"/>
    </g>
    <g>
      <path class="cls-4" d="M315.15,469.36c0-136.58-46.28-198.26-130.06-199.22"/>
      <polygon points="185.52 268.79 183.08 270.12 185.46 271.57 185.52 268.79"/>
    </g>
    <g>
      <path class="cls-5" d="M630.29,450.21c0-120.6,57.15-265.05,128.3-269.99"/>
      <polygon points="757.95 182.9 762.35 180.08 757.71 177.67 757.95 182.9"/>
    </g>
    <g>
      <path class="cls-5" d="M762.35,468.01c0-120.6,60.05-195.28,131.3-197.82"/>
      <polygon points="892.97 272.89 897.42 270.13 892.8 267.66 892.97 272.89"/>
    </g>
    <g>
      <path class="cls-3" d="M540.25,450.21V96.72"/>
      <polygon points="542.81 97.47 540.25 93.04 537.69 97.47 542.81 97.47"/>
    </g>
    <circle cx="540.25" cy="945.44" r="6"/>
    <text class="cls-2" transform="translate(562.76 945.88)"><tspan x="0" y="0">Interaction</tspan></text>
    <text class="cls-2" transform="translate(765.35 183.34)"><tspan x="0" y="0">Data</tspan></text>
    <text class="cls-2" transform="translate(900.42 273.13)"><tspan x="0" y="0">Data</tspan></text>
    <text class="cls-2" transform="translate(526.38 90.04)"><tspan x="0" y="0">Data</tspan></text>
    <text class="cls-2" transform="translate(287.78 182.87)"><tspan x="0" y="0">Data</tspan></text>
    <text class="cls-2" transform="translate(152.08 273.2)"><tspan x="0" y="0">Data</tspan></text>
  </g>
</svg>