<svg width="121" height="800" viewBox="0 0 121 771" fill="none" xmlns="http://www.w3.org/2000/svg">
<path d="M120.5 385.5C120.5 491.935 113.729 588.283 102.786 658.012C97.3138 692.881 90.8016 721.07 83.5806 740.532C79.969 750.265 76.1907 757.786 72.2961 762.864C68.3938 767.952 64.4452 770.5 60.5 770.5C56.5548 770.5 52.6062 767.952 48.7039 762.864C44.8093 757.786 41.031 750.265 37.4194 740.532C30.1984 721.07 23.6862 692.881 18.214 658.012C7.27078 588.283 0.5 491.935 0.5 385.5C0.5 279.065 7.27078 182.717 18.214 112.988C23.6862 78.1194 30.1984 49.9298 37.4194 30.4684C41.031 20.7349 44.8093 13.2143 48.7039 8.13627C52.6062 3.04809 56.5548 0.5 60.5 0.5C64.4452 0.5 68.3938 3.04809 72.2961 8.13627C76.1907 13.2143 79.969 20.7349 83.5806 30.4684C90.8016 49.9298 97.3138 78.1194 102.786 112.988C113.729 182.717 120.5 279.065 120.5 385.5Z" stroke="black" stroke-width="1px"/>
</svg>
