<?xml version="1.0" encoding="UTF-8"?>
<svg id="Layer_2" data-name="Layer 2" xmlns="http://www.w3.org/2000/svg" viewBox="0 0 208.26 128.01">
  <defs>
    <style>
      .cls-1 {
        fill: #92278f;
      }

      .cls-2 {
        stroke: #00aeef;
        stroke-width: 6px;
      }

      .cls-2, .cls-3, .cls-4 {
        fill: none;
        stroke-linecap: round;
        stroke-linejoin: round;
      }

      .cls-3 {
        stroke: #39b54a;
        stroke-width: 4px;
      }

      .cls-4, .cls-5 {
        stroke: #231f20;
      }

      .cls-5 {
        fill: #fff;
        stroke-miterlimit: 10;
      }
    </style>
  </defs>
  <g id="logo_trial" data-name="logo trial">
    <g id="actual-logo">
      <g>
        <g>
          <path class="cls-5" d="M34.18,83.42V12.93h-9.17l-.76,6.33-.9-5.8h-8.76l-1.96,12.43-1.64-12.96H2.19v79.2l-1.61,10.22h6.38l.15-1.02h.91v-6.06l2.82-18.85h3.27l.85,6.49h6.2l.81-6.49h3.38l2.51,17.93v6.98h.98l.14,1.02h8.13l-2.93-18.93ZM8.02,55.15v-4.89c0-6.39-.13-13.88-.25-20.26h.25l1.79,13.78-1.79,11.37ZM11.72,70.13l.83-5.54.73,5.54h-1.56ZM20.05,54.06c-.48,4.32-.95,10.32-1.64,16.07h-.32c-.71-5.75-1.3-11.75-1.89-16.07l-.95-7.53,1.1-7.39,2-14.32h.12l1.75,14.32.87,6.31-1.04,8.61ZM22.76,70.13l.82-6.57.9,6.57h-1.72ZM27.89,42.79l-.92-5.96.89-6.83h.25c-.09,4.35-.17,8.54-.22,12.79Z"/>
          <path class="cls-5" d="M96.84,33.8c-1.92,0-3.66,1.52-5.26,3.73-2.4-2.78-5.18-4.35-8.15-4.35-2.68,0-5.17,1.47-7.34,4.06l-.08-2.21h-5.04v-.99c-3.32-.31-6.3.93-8.93,3.18-2.43-3.18-5.44-5.02-8.76-5.02-5,0-9.21,4.5-12.03,11.6-.96.21-2.01.37-3.18.49v5.31l1.32.03c-1.27,5.05-1.98,10.88-1.98,17.06,0,12.59,3.06,23.1,7.6,29.04l-5.94.41v5.68h28.27v-5.68l-5.43-.29c2.53-3.52,4.4-8.47,5.38-13.69l-5.45-1.47c-1.6,6.43-3.66,10.77-6.01,11.87v-32h12.33l.12-.12c-.24,2.4-.36,4.88-.36,7.43,0,6.75.87,12.92,2.39,18.13v15.33h6.44v-2.84c2.3,2.45,4.91,3.82,7.68,3.82,1.29,0,2.53-.34,3.72-.98h1.13v-.71c2.33-1.69,4.4-4.55,6.08-8.27v8.98h6.44v-55.37c0-9.7-2.23-12.16-4.96-12.16ZM47.95,82.24c-1.27-5.28-1.99-12.02-1.99-18.98v-2.7h1.99v21.68ZM47.95,54.42h-1.61c.17-1.62.38-3.15.63-4.6l.98.02v4.58ZM55.21,46.39h-.13l-.07-7.15c.83.77,1.59,2.02,2.22,3.67-.71,1.1-1.39,2.26-2.02,3.48ZM55.83,54.42v-.5c.89-1.48,1.91-2.83,3.03-4.01.18,1.41.31,2.91.37,4.51h-3.4ZM70.31,49.29c-.95,3.35-1.64,7.09-2.03,11.07,0-5.66-.81-10.82-2.22-15.15,1.35-.43,2.77-.66,4.25-.67v4.75ZM82.83,95.28c-3.62-3.44-6.03-16.72-6.03-30.74,0-7.45.76-14.73,2.2-19.54,1.02-1.65,1.73-2.36,2.34-2.36.75,0,1.49.62,1.49,4.06v48.58ZM89.28,88.94v-37.96c1.13,5.61,1.78,12.69,1.78,19.98,0,6.69-.61,13.24-1.78,17.98Z"/>
          <path class="cls-5" d="M168.61,34.05c-2.76-.26-5.27.58-7.54,2.16-1.21-1.63-2.86-2.41-4.88-2.41-1.16,0-2.31.33-3.44.91v-1.03h-5.22c-.72,4.49-2.08,7.07-4.49,8.6l-.36-7.25h-7.26v23.19c-.83-6.49-2.52-12.11-4.8-16.38v-8.04h-7.87c-1.01-.4-2.06-.61-3.12-.61-3.36,0-6.41,2.34-8.9,6.28v-5.67h-7.88v56.91c0,7.9,3.5,10.99,7.63,10.99,1.7,0,3.39-.51,5.05-1.39,1.6,1.06,3.31,1.63,5.09,1.63,1.58,0,3.09-.52,4.51-1.48h5.49v-6.72c2.28-4.38,3.97-10.24,4.8-16.89v24.85h7.88v-.25h12.26v.25h7.88v-.25h1.57v-5.65l-1.57-.08v-48.96c0-.52-.01-1.01-.03-1.49,1.64-.57,3.38-.86,5.2-.78v-10.44ZM117.15,92.05c-2.52-5.5-4.1-16.35-4.1-27.68,0-12.76,2.24-25.04,6.33-25.04,1.23,0,2.36,1.1,3.36,3.01v45.04c-.69.84-3.12,3.23-5.59,4.67ZM121.52,95.69c.57-.57,1.15-1.16,1.72-1.77h.12v.11c-.55.86-1.17,1.43-1.84,1.66ZM145.79,95.19l-2.49.17v-41.56c.81-1.29,1.64-2.51,2.49-3.66v45.05ZM152.86,46.33l-.03-2.65s.07,0,.1,0c.5,0,.94.13,1.31.42-.43.72-.85,1.47-1.26,2.24h-.12ZM155.56,95.3l-1.96-.11v-41.37c.6-1,1.26-1.93,1.96-2.79v44.27Z"/>
          <path class="cls-5" d="M207.63,34.63h-6.45l-5.69,27.96V11.98l.38-11.48h-5.38c-1.75,5.56-5.88,7.65-13.51,8.02v5.31l10.63.13v16.17c0,2.1.13,4.81.13,7.28-1.88-2.22-4.63-4.2-7.76-4.2-1.51,0-2.96.51-4.33,1.42h-4.35l.92,3.42c-4.39,5.99-7.25,16.89-7.25,28.99,0,22.35,7.26,35.31,14.39,35.31,3.54,0,6.84-3.53,8.51-6.57l.29,1.1c-2.85,10.43-6.69,18.78-11.03,26.88l7.44,3.56c2.43-6.58,5.36-15.69,8.09-26.2h3.08l-.23-11.87,12.12-54.62ZM181.23,93.96c-4.5,0-7.63-11.86-7.63-29.39,0-6.53.5-12.11,1.38-16.33l11.32,41.78c-1.44,2.14-3.29,3.94-5.07,3.94ZM187.61,65.93l-6.5-26.24c2.51.9,5.16,5.39,6.5,8.71v17.53Z"/>
        </g>
        <g>
          <path class="cls-1" d="M34.18,83.42V12.93h-9.17l-.76,6.33-.9-5.8h-8.76l-1.96,12.43-1.64-12.96H2.19v79.2l-1.61,10.22h6.38l.15-1.02h.91v-6.06l2.82-18.85h3.27l.85,6.49h6.2l.81-6.49h3.38l2.51,17.93v6.98h.98l.14,1.02h8.13l-2.93-18.93ZM8.02,55.15v-4.89c0-6.39-.13-13.88-.25-20.26h.25l1.79,13.78-1.79,11.37ZM11.72,70.13l.83-5.54.73,5.54h-1.56ZM20.05,54.06c-.48,4.32-.95,10.32-1.64,16.07h-.32c-.71-5.75-1.3-11.75-1.89-16.07l-.95-7.53,1.1-7.39,2-14.32h.12l1.75,14.32.87,6.31-1.04,8.61ZM22.76,70.13l.82-6.57.9,6.57h-1.72ZM27.89,42.79l-.92-5.96.89-6.83h.25c-.09,4.35-.17,8.54-.22,12.79Z"/>
          <path class="cls-1" d="M96.84,33.8c-1.92,0-3.66,1.52-5.26,3.73-2.4-2.78-5.18-4.35-8.15-4.35-2.68,0-5.17,1.47-7.34,4.06l-.08-2.21h-5.04v-.99c-3.32-.31-6.3.93-8.93,3.18-2.43-3.18-5.44-5.02-8.76-5.02-5,0-9.21,4.5-12.03,11.6-.96.21-2.01.37-3.18.49v5.31l1.32.03c-1.27,5.05-1.98,10.88-1.98,17.06,0,12.59,3.06,23.1,7.6,29.04l-5.94.41v5.68h28.27v-5.68l-5.43-.29c2.53-3.52,4.4-8.47,5.38-13.69l-5.45-1.47c-1.6,6.43-3.66,10.77-6.01,11.87v-32h12.33l.12-.12c-.24,2.4-.36,4.88-.36,7.43,0,6.75.87,12.92,2.39,18.13v15.33h6.44v-2.84c2.3,2.45,4.91,3.82,7.68,3.82,1.29,0,2.53-.34,3.72-.98h1.13v-.71c2.33-1.69,4.4-4.55,6.08-8.27v8.98h6.44v-55.37c0-9.7-2.23-12.16-4.96-12.16ZM47.95,82.24c-1.27-5.28-1.99-12.02-1.99-18.98v-2.7h1.99v21.68ZM47.95,54.42h-1.61c.17-1.62.38-3.15.63-4.6l.98.02v4.58ZM55.21,46.39h-.13l-.07-7.15c.83.77,1.59,2.02,2.22,3.67-.71,1.1-1.39,2.26-2.02,3.48ZM55.83,54.42v-.5c.89-1.48,1.91-2.83,3.03-4.01.18,1.41.31,2.91.37,4.51h-3.4ZM70.31,49.29c-.95,3.35-1.64,7.09-2.03,11.07,0-5.66-.81-10.82-2.22-15.15,1.35-.43,2.77-.66,4.25-.67v4.75ZM82.83,95.28c-3.62-3.44-6.03-16.72-6.03-30.74,0-7.45.76-14.73,2.2-19.54,1.02-1.65,1.73-2.36,2.34-2.36.75,0,1.49.62,1.49,4.06v48.58ZM89.28,88.94v-37.96c1.13,5.61,1.78,12.69,1.78,19.98,0,6.69-.61,13.24-1.78,17.98Z"/>
          <path class="cls-1" d="M168.61,34.05c-2.76-.26-5.27.58-7.54,2.16-1.21-1.63-2.86-2.41-4.88-2.41-1.16,0-2.31.33-3.44.91v-1.03h-5.22c-.72,4.49-2.08,7.07-4.49,8.6l-.36-7.25h-7.26v23.19c-.83-6.49-2.52-12.11-4.8-16.38v-8.04h-7.87c-1.01-.4-2.06-.61-3.12-.61-3.36,0-6.41,2.34-8.9,6.28v-5.67h-7.88v56.91c0,7.9,3.5,10.99,7.63,10.99,1.7,0,3.39-.51,5.05-1.39,1.6,1.06,3.31,1.63,5.09,1.63,1.58,0,3.09-.52,4.51-1.48h5.49v-6.72c2.28-4.38,3.97-10.24,4.8-16.89v24.85h7.88v-.25h12.26v.25h7.88v-.25h1.57v-5.65l-1.57-.08v-48.96c0-.52-.01-1.01-.03-1.49,1.64-.57,3.38-.86,5.2-.78v-10.44ZM117.15,92.05c-2.52-5.5-4.1-16.35-4.1-27.68,0-12.76,2.24-25.04,6.33-25.04,1.23,0,2.36,1.1,3.36,3.01v45.04c-.69.84-3.12,3.23-5.59,4.67ZM121.52,95.69c.57-.57,1.15-1.16,1.72-1.77h.12v.11c-.55.86-1.17,1.43-1.84,1.66ZM145.79,95.19l-2.49.17v-41.56c.81-1.29,1.64-2.51,2.49-3.66v45.05ZM152.86,46.33l-.03-2.65s.07,0,.1,0c.5,0,.94.13,1.31.42-.43.72-.85,1.47-1.26,2.24h-.12ZM155.56,95.3l-1.96-.11v-41.37c.6-1,1.26-1.93,1.96-2.79v44.27Z"/>
          <path class="cls-1" d="M207.63,34.63h-6.45l-5.69,27.96V11.98l.38-11.48h-5.38c-1.75,5.56-5.88,7.65-13.51,8.02v5.31l10.63.13v16.17c0,2.1.13,4.81.13,7.28-1.88-2.22-4.63-4.2-7.76-4.2-1.51,0-2.96.51-4.33,1.42h-4.35l.92,3.42c-4.39,5.99-7.25,16.89-7.25,28.99,0,22.35,7.26,35.31,14.39,35.31,3.54,0,6.84-3.53,8.51-6.57l.29,1.1c-2.85,10.43-6.69,18.78-11.03,26.88l7.44,3.56c2.43-6.58,5.36-15.69,8.09-26.2h3.08l-.23-11.87,12.12-54.62ZM181.23,93.96c-4.5,0-7.63-11.86-7.63-29.39,0-6.53.5-12.11,1.38-16.33l11.32,41.78c-1.44,2.14-3.29,3.94-5.07,3.94ZM187.61,65.93l-6.5-26.24c2.51.9,5.16,5.39,6.5,8.71v17.53Z"/>
        </g>
        <g>
          <path class="cls-2" d="M34.18,83.42V12.93h-9.17l-.76,6.33-.9-5.8h-8.76l-1.96,12.43-1.64-12.96H2.19v79.2l-1.61,10.22h6.38l.15-1.02h.91v-6.06l2.82-18.85h3.27l.85,6.49h6.2l.81-6.49h3.38l2.51,17.93v6.98h.98l.14,1.02h8.13l-2.93-18.93ZM8.02,55.15v-4.89c0-6.39-.13-13.88-.25-20.26h.25l1.79,13.78-1.79,11.37ZM11.72,70.13l.83-5.54.73,5.54h-1.56ZM20.05,54.06c-.48,4.32-.95,10.32-1.64,16.07h-.32c-.71-5.75-1.3-11.75-1.89-16.07l-.95-7.53,1.1-7.39,2-14.32h.12l1.75,14.32.87,6.31-1.04,8.61ZM22.76,70.13l.82-6.57.9,6.57h-1.72ZM27.89,42.79l-.92-5.96.89-6.83h.25c-.09,4.35-.17,8.54-.22,12.79Z"/>
          <path class="cls-2" d="M96.84,33.8c-1.92,0-3.66,1.52-5.26,3.73-2.4-2.78-5.18-4.35-8.15-4.35-2.68,0-5.17,1.47-7.34,4.06l-.08-2.21h-5.04v-.99c-3.32-.31-6.3.93-8.93,3.18-2.43-3.18-5.44-5.02-8.76-5.02-5,0-9.21,4.5-12.03,11.6-.96.21-2.01.37-3.18.49v5.31l1.32.03c-1.27,5.05-1.98,10.88-1.98,17.06,0,12.59,3.06,23.1,7.6,29.04l-5.94.41v5.68h28.27v-5.68l-5.43-.29c2.53-3.52,4.4-8.47,5.38-13.69l-5.45-1.47c-1.6,6.43-3.66,10.77-6.01,11.87v-32h12.33l.12-.12c-.24,2.4-.36,4.88-.36,7.43,0,6.75.87,12.92,2.39,18.13v15.33h6.44v-2.84c2.3,2.45,4.91,3.82,7.68,3.82,1.29,0,2.53-.34,3.72-.98h1.13v-.71c2.33-1.69,4.4-4.55,6.08-8.27v8.98h6.44v-55.37c0-9.7-2.23-12.16-4.96-12.16ZM47.95,82.24c-1.27-5.28-1.99-12.02-1.99-18.98v-2.7h1.99v21.68ZM47.95,54.42h-1.61c.17-1.62.38-3.15.63-4.6l.98.02v4.58ZM55.21,46.39h-.13l-.07-7.15c.83.77,1.59,2.02,2.22,3.67-.71,1.1-1.39,2.26-2.02,3.48ZM55.83,54.42v-.5c.89-1.48,1.91-2.83,3.03-4.01.18,1.41.31,2.91.37,4.51h-3.4ZM70.31,49.29c-.95,3.35-1.64,7.09-2.03,11.07,0-5.66-.81-10.82-2.22-15.15,1.35-.43,2.77-.66,4.25-.67v4.75ZM82.83,95.28c-3.62-3.44-6.03-16.72-6.03-30.74,0-7.45.76-14.73,2.2-19.54,1.02-1.65,1.73-2.36,2.34-2.36.75,0,1.49.62,1.49,4.06v48.58ZM89.28,88.94v-37.96c1.13,5.61,1.78,12.69,1.78,19.98,0,6.69-.61,13.24-1.78,17.98Z"/>
          <path class="cls-2" d="M168.61,34.05c-2.76-.26-5.27.58-7.54,2.16-1.21-1.63-2.86-2.41-4.88-2.41-1.16,0-2.31.33-3.44.91v-1.03h-5.22c-.72,4.49-2.08,7.07-4.49,8.6l-.36-7.25h-7.26v23.19c-.83-6.49-2.52-12.11-4.8-16.38v-8.04h-7.87c-1.01-.4-2.06-.61-3.12-.61-3.36,0-6.41,2.34-8.9,6.28v-5.67h-7.88v56.91c0,7.9,3.5,10.99,7.63,10.99,1.7,0,3.39-.51,5.05-1.39,1.6,1.06,3.31,1.63,5.09,1.63,1.58,0,3.09-.52,4.51-1.48h5.49v-6.72c2.28-4.38,3.97-10.24,4.8-16.89v24.85h7.88v-.25h12.26v.25h7.88v-.25h1.57v-5.65l-1.57-.08v-48.96c0-.52-.01-1.01-.03-1.49,1.64-.57,3.38-.86,5.2-.78v-10.44ZM117.15,92.05c-2.52-5.5-4.1-16.35-4.1-27.68,0-12.76,2.24-25.04,6.33-25.04,1.23,0,2.36,1.1,3.36,3.01v45.04c-.69.84-3.12,3.23-5.59,4.67ZM121.52,95.69c.57-.57,1.15-1.16,1.72-1.77h.12v.11c-.55.86-1.17,1.43-1.84,1.66ZM145.79,95.19l-2.49.17v-41.56c.81-1.29,1.64-2.51,2.49-3.66v45.05ZM152.86,46.33l-.03-2.65s.07,0,.1,0c.5,0,.94.13,1.31.42-.43.72-.85,1.47-1.26,2.24h-.12ZM155.56,95.3l-1.96-.11v-41.37c.6-1,1.26-1.93,1.96-2.79v44.27Z"/>
          <path class="cls-2" d="M207.63,34.63h-6.45l-5.69,27.96V11.98l.38-11.48h-5.38c-1.75,5.56-5.88,7.65-13.51,8.02v5.31l10.63.13v16.17c0,2.1.13,4.81.13,7.28-1.88-2.22-4.63-4.2-7.76-4.2-1.51,0-2.96.51-4.33,1.42h-4.35l.92,3.42c-4.39,5.99-7.25,16.89-7.25,28.99,0,22.35,7.26,35.31,14.39,35.31,3.54,0,6.84-3.53,8.51-6.57l.29,1.1c-2.85,10.43-6.69,18.78-11.03,26.88l7.44,3.56c2.43-6.58,5.36-15.69,8.09-26.2h3.08l-.23-11.87,12.12-54.62ZM181.23,93.96c-4.5,0-7.63-11.86-7.63-29.39,0-6.53.5-12.11,1.38-16.33l11.32,41.78c-1.44,2.14-3.29,3.94-5.07,3.94ZM187.61,65.93l-6.5-26.24c2.51.9,5.16,5.39,6.5,8.71v17.53Z"/>
        </g>
        <g>
          <path class="cls-3" d="M34.18,83.42V12.93h-9.17l-.76,6.33-.9-5.8h-8.76l-1.96,12.43-1.64-12.96H2.19v79.2l-1.61,10.22h6.38l.15-1.02h.91v-6.06l2.82-18.85h3.27l.85,6.49h6.2l.81-6.49h3.38l2.51,17.93v6.98h.98l.14,1.02h8.13l-2.93-18.93ZM8.02,55.15v-4.89c0-6.39-.13-13.88-.25-20.26h.25l1.79,13.78-1.79,11.37ZM11.72,70.13l.83-5.54.73,5.54h-1.56ZM20.05,54.06c-.48,4.32-.95,10.32-1.64,16.07h-.32c-.71-5.75-1.3-11.75-1.89-16.07l-.95-7.53,1.1-7.39,2-14.32h.12l1.75,14.32.87,6.31-1.04,8.61ZM22.76,70.13l.82-6.57.9,6.57h-1.72ZM27.89,42.79l-.92-5.96.89-6.83h.25c-.09,4.35-.17,8.54-.22,12.79Z"/>
          <path class="cls-3" d="M96.84,33.8c-1.92,0-3.66,1.52-5.26,3.73-2.4-2.78-5.18-4.35-8.15-4.35-2.68,0-5.17,1.47-7.34,4.06l-.08-2.21h-5.04v-.99c-3.32-.31-6.3.93-8.93,3.18-2.43-3.18-5.44-5.02-8.76-5.02-5,0-9.21,4.5-12.03,11.6-.96.21-2.01.37-3.18.49v5.31l1.32.03c-1.27,5.05-1.98,10.88-1.98,17.06,0,12.59,3.06,23.1,7.6,29.04l-5.94.41v5.68h28.27v-5.68l-5.43-.29c2.53-3.52,4.4-8.47,5.38-13.69l-5.45-1.47c-1.6,6.43-3.66,10.77-6.01,11.87v-32h12.33l.12-.12c-.24,2.4-.36,4.88-.36,7.43,0,6.75.87,12.92,2.39,18.13v15.33h6.44v-2.84c2.3,2.45,4.91,3.82,7.68,3.82,1.29,0,2.53-.34,3.72-.98h1.13v-.71c2.33-1.69,4.4-4.55,6.08-8.27v8.98h6.44v-55.37c0-9.7-2.23-12.16-4.96-12.16ZM47.95,82.24c-1.27-5.28-1.99-12.02-1.99-18.98v-2.7h1.99v21.68ZM47.95,54.42h-1.61c.17-1.62.38-3.15.63-4.6l.98.02v4.58ZM55.21,46.39h-.13l-.07-7.15c.83.77,1.59,2.02,2.22,3.67-.71,1.1-1.39,2.26-2.02,3.48ZM55.83,54.42v-.5c.89-1.48,1.91-2.83,3.03-4.01.18,1.41.31,2.91.37,4.51h-3.4ZM70.31,49.29c-.95,3.35-1.64,7.09-2.03,11.07,0-5.66-.81-10.82-2.22-15.15,1.35-.43,2.77-.66,4.25-.67v4.75ZM82.83,95.28c-3.62-3.44-6.03-16.72-6.03-30.74,0-7.45.76-14.73,2.2-19.54,1.02-1.65,1.73-2.36,2.34-2.36.75,0,1.49.62,1.49,4.06v48.58ZM89.28,88.94v-37.96c1.13,5.61,1.78,12.69,1.78,19.98,0,6.69-.61,13.24-1.78,17.98Z"/>
          <path class="cls-3" d="M168.61,34.05c-2.76-.26-5.27.58-7.54,2.16-1.21-1.63-2.86-2.41-4.88-2.41-1.16,0-2.31.33-3.44.91v-1.03h-5.22c-.72,4.49-2.08,7.07-4.49,8.6l-.36-7.25h-7.26v23.19c-.83-6.49-2.52-12.11-4.8-16.38v-8.04h-7.87c-1.01-.4-2.06-.61-3.12-.61-3.36,0-6.41,2.34-8.9,6.28v-5.67h-7.88v56.91c0,7.9,3.5,10.99,7.63,10.99,1.7,0,3.39-.51,5.05-1.39,1.6,1.06,3.31,1.63,5.09,1.63,1.58,0,3.09-.52,4.51-1.48h5.49v-6.72c2.28-4.38,3.97-10.24,4.8-16.89v24.85h7.88v-.25h12.26v.25h7.88v-.25h1.57v-5.65l-1.57-.08v-48.96c0-.52-.01-1.01-.03-1.49,1.64-.57,3.38-.86,5.2-.78v-10.44ZM117.15,92.05c-2.52-5.5-4.1-16.35-4.1-27.68,0-12.76,2.24-25.04,6.33-25.04,1.23,0,2.36,1.1,3.36,3.01v45.04c-.69.84-3.12,3.23-5.59,4.67ZM121.52,95.69c.57-.57,1.15-1.16,1.72-1.77h.12v.11c-.55.86-1.17,1.43-1.84,1.66ZM145.79,95.19l-2.49.17v-41.56c.81-1.29,1.64-2.51,2.49-3.66v45.05ZM152.86,46.33l-.03-2.65s.07,0,.1,0c.5,0,.94.13,1.31.42-.43.72-.85,1.47-1.26,2.24h-.12ZM155.56,95.3l-1.96-.11v-41.37c.6-1,1.26-1.93,1.96-2.79v44.27Z"/>
          <path class="cls-3" d="M207.63,34.63h-6.45l-5.69,27.96V11.98l.38-11.48h-5.38c-1.75,5.56-5.88,7.65-13.51,8.02v5.31l10.63.13v16.17c0,2.1.13,4.81.13,7.28-1.88-2.22-4.63-4.2-7.76-4.2-1.51,0-2.96.51-4.33,1.42h-4.35l.92,3.42c-4.39,5.99-7.25,16.89-7.25,28.99,0,22.35,7.26,35.31,14.39,35.31,3.54,0,6.84-3.53,8.51-6.57l.29,1.1c-2.85,10.43-6.69,18.78-11.03,26.88l7.44,3.56c2.43-6.58,5.36-15.69,8.09-26.2h3.08l-.23-11.87,12.12-54.62ZM181.23,93.96c-4.5,0-7.63-11.86-7.63-29.39,0-6.53.5-12.11,1.38-16.33l11.32,41.78c-1.44,2.14-3.29,3.94-5.07,3.94ZM187.61,65.93l-6.5-26.24c2.51.9,5.16,5.39,6.5,8.71v17.53Z"/>
        </g>
        <g>
          <path class="cls-4" d="M34.18,83.42V12.93h-9.17l-.76,6.33-.9-5.8h-8.76l-1.96,12.43-1.64-12.96H2.19v79.2l-1.61,10.22h6.38l.15-1.02h.91v-6.06l2.82-18.85h3.27l.85,6.49h6.2l.81-6.49h3.38l2.51,17.93v6.98h.98l.14,1.02h8.13l-2.93-18.93ZM8.02,55.15v-4.89c0-6.39-.13-13.88-.25-20.26h.25l1.79,13.78-1.79,11.37ZM11.72,70.13l.83-5.54.73,5.54h-1.56ZM20.05,54.06c-.48,4.32-.95,10.32-1.64,16.07h-.32c-.71-5.75-1.3-11.75-1.89-16.07l-.95-7.53,1.1-7.39,2-14.32h.12l1.75,14.32.87,6.31-1.04,8.61ZM22.76,70.13l.82-6.57.9,6.57h-1.72ZM27.89,42.79l-.92-5.96.89-6.83h.25c-.09,4.35-.17,8.54-.22,12.79Z"/>
          <path class="cls-4" d="M96.84,33.8c-1.92,0-3.66,1.52-5.26,3.73-2.4-2.78-5.18-4.35-8.15-4.35-2.68,0-5.17,1.47-7.34,4.06l-.08-2.21h-5.04v-.99c-3.32-.31-6.3.93-8.93,3.18-2.43-3.18-5.44-5.02-8.76-5.02-5,0-9.21,4.5-12.03,11.6-.96.21-2.01.37-3.18.49v5.31l1.32.03c-1.27,5.05-1.98,10.88-1.98,17.06,0,12.59,3.06,23.1,7.6,29.04l-5.94.41v5.68h28.27v-5.68l-5.43-.29c2.53-3.52,4.4-8.47,5.38-13.69l-5.45-1.47c-1.6,6.43-3.66,10.77-6.01,11.87v-32h12.33l.12-.12c-.24,2.4-.36,4.88-.36,7.43,0,6.75.87,12.92,2.39,18.13v15.33h6.44v-2.84c2.3,2.45,4.91,3.82,7.68,3.82,1.29,0,2.53-.34,3.72-.98h1.13v-.71c2.33-1.69,4.4-4.55,6.08-8.27v8.98h6.44v-55.37c0-9.7-2.23-12.16-4.96-12.16ZM47.95,82.24c-1.27-5.28-1.99-12.02-1.99-18.98v-2.7h1.99v21.68ZM47.95,54.42h-1.61c.17-1.62.38-3.15.63-4.6l.98.02v4.58ZM55.21,46.39h-.13l-.07-7.15c.83.77,1.59,2.02,2.22,3.67-.71,1.1-1.39,2.26-2.02,3.48ZM55.83,54.42v-.5c.89-1.48,1.91-2.83,3.03-4.01.18,1.41.31,2.91.37,4.51h-3.4ZM70.31,49.29c-.95,3.35-1.64,7.09-2.03,11.07,0-5.66-.81-10.82-2.22-15.15,1.35-.43,2.77-.66,4.25-.67v4.75ZM82.83,95.28c-3.62-3.44-6.03-16.72-6.03-30.74,0-7.45.76-14.73,2.2-19.54,1.02-1.65,1.73-2.36,2.34-2.36.75,0,1.49.62,1.49,4.06v48.58ZM89.28,88.94v-37.96c1.13,5.61,1.78,12.69,1.78,19.98,0,6.69-.61,13.24-1.78,17.98Z"/>
          <path class="cls-4" d="M168.61,34.05c-2.76-.26-5.27.58-7.54,2.16-1.21-1.63-2.86-2.41-4.88-2.41-1.16,0-2.31.33-3.44.91v-1.03h-5.22c-.72,4.49-2.08,7.07-4.49,8.6l-.36-7.25h-7.26v23.19c-.83-6.49-2.52-12.11-4.8-16.38v-8.04h-7.87c-1.01-.4-2.06-.61-3.12-.61-3.36,0-6.41,2.34-8.9,6.28v-5.67h-7.88v56.91c0,7.9,3.5,10.99,7.63,10.99,1.7,0,3.39-.51,5.05-1.39,1.6,1.06,3.31,1.63,5.09,1.63,1.58,0,3.09-.52,4.51-1.48h5.49v-6.72c2.28-4.38,3.97-10.24,4.8-16.89v24.85h7.88v-.25h12.26v.25h7.88v-.25h1.57v-5.65l-1.57-.08v-48.96c0-.52-.01-1.01-.03-1.49,1.64-.57,3.38-.86,5.2-.78v-10.44ZM117.15,92.05c-2.52-5.5-4.1-16.35-4.1-27.68,0-12.76,2.24-25.04,6.33-25.04,1.23,0,2.36,1.1,3.36,3.01v45.04c-.69.84-3.12,3.23-5.59,4.67ZM121.52,95.69c.57-.57,1.15-1.16,1.72-1.77h.12v.11c-.55.86-1.17,1.43-1.84,1.66ZM145.79,95.19l-2.49.17v-41.56c.81-1.29,1.64-2.51,2.49-3.66v45.05ZM152.86,46.33l-.03-2.65s.07,0,.1,0c.5,0,.94.13,1.31.42-.43.72-.85,1.47-1.26,2.24h-.12ZM155.56,95.3l-1.96-.11v-41.37c.6-1,1.26-1.93,1.96-2.79v44.27Z"/>
          <path class="cls-4" d="M207.63,34.63h-6.45l-5.69,27.96V11.98l.38-11.48h-5.38c-1.75,5.56-5.88,7.65-13.51,8.02v5.31l10.63.13v16.17c0,2.1.13,4.81.13,7.28-1.88-2.22-4.63-4.2-7.76-4.2-1.51,0-2.96.51-4.33,1.42h-4.35l.92,3.42c-4.39,5.99-7.25,16.89-7.25,28.99,0,22.35,7.26,35.31,14.39,35.31,3.54,0,6.84-3.53,8.51-6.57l.29,1.1c-2.85,10.43-6.69,18.78-11.03,26.88l7.44,3.56c2.43-6.58,5.36-15.69,8.09-26.2h3.08l-.23-11.87,12.12-54.62ZM181.23,93.96c-4.5,0-7.63-11.86-7.63-29.39,0-6.53.5-12.11,1.38-16.33l11.32,41.78c-1.44,2.14-3.29,3.94-5.07,3.94ZM187.61,65.93l-6.5-26.24c2.51.9,5.16,5.39,6.5,8.71v17.53Z"/>
        </g>
      </g>
    </g>
  </g>
</svg>