<?xml version="1.0" encoding="UTF-8"?>
<svg id="Layer_2" data-name="Layer 2" xmlns="http://www.w3.org/2000/svg" viewBox="0 0 97.54 29.97">
  <defs>
    <style>
      .g-1 {
        fill: #688600;
      }

      .g-2 {
        fill: #dad9d9;
      }
    </style>
  </defs>
  <g id="Master_logo_export" data-name="Master logo export">
    <g>
      <rect class="g-1" y="9.59" width="97.54" height="19.84"/>
      <path class="g-2" d="M0,20.13h3.81c.25,4.14,3.28,6.72,7.83,6.72s7.3-2.09,7.3-5.21c0-2.75-2.3-3.98-5.7-4.76l-4.26-.98C4.59,14.88.98,12.38.98,8,.98,3.36,5.41,0,11.48,0s10.33,3.36,10.66,8.69h-3.81c-.25-3.4-2.91-5.54-6.93-5.54-3.73,0-6.48,1.89-6.48,4.51,0,2.46,1.64,3.94,5,4.71l5.08,1.15c4.55,1.07,7.87,3.53,7.87,7.87,0,4.71-4.22,8.57-11.28,8.57S.08,26.2,0,20.13Z"/>
      <path class="g-2" d="M23.17,19.39c0-6.07,3.98-10.46,9.39-10.46,5.9,0,9.14,4.14,9.14,10.5v.7h-15.01c.08,4.51,2.71,7.09,6.11,7.09,2.42,0,4.71-.94,5.21-3.98h3.48c-.41,3.48-3.12,6.72-8.73,6.72-5.9,0-9.59-3.73-9.59-10.58ZM37.93,17.63c0-3.53-1.93-5.9-5.37-5.9s-5.49,2.58-5.74,5.9h11.11Z"/>
      <path class="g-2" d="M42.64,9.59h3.49v2.67c1.07-1.72,3.44-3.32,6.11-3.32,4.55,0,7.3,2.87,7.3,7.95v12.46h-3.53v-12.01c0-3.73-1.23-5.62-4.35-5.62-3.44,0-5.49,2.62-5.49,5.74v11.89h-3.53V9.59Z"/>
      <path class="g-2" d="M62.65,23.86v-11.36h-3.69v-2.91h3.69V3.08h3.53v6.52h4.1v2.91h-4.1v10.99c0,2.3,1.15,3.03,2.91,3.03.49,0,.9-.04,1.48-.12v3.03c-.74.16-1.48.25-2.3.25-2.95,0-5.62-1.44-5.62-5.82Z"/>
      <path class="g-2" d="M71.71,9.59h3.53v3.28c.98-2.26,3.16-3.94,6.19-3.94.25,0,.57,0,.9.04v3.48c-.29-.04-.62-.08-1.11-.08-3.81,0-5.99,2.13-5.99,6.52v10.46h-3.53V9.59Z"/>
      <path class="g-2" d="M81.3,23.94c0-3.81,3.03-5.62,6.56-6.15l4.22-.66c1.52-.25,2.01-.78,2.01-1.97,0-2.17-1.68-3.44-3.98-3.44-3.03,0-4.59,1.6-4.67,4.06h-3.53c.12-3.61,2.95-6.85,7.91-6.85s7.71,2.91,7.71,7.46v12.96h-3.36v-2.67c-.98,2.05-3.12,3.28-6.07,3.28-3.77,0-6.81-2.3-6.81-6.03ZM88.6,27.22c3.16,0,5.49-2.13,5.49-5.33v-2.91c-.25.37-.98.66-2.17.86l-2.87.53c-2.34.45-4.1,1.48-4.1,3.57s1.64,3.28,3.65,3.28Z"/>
    </g>
  </g>
</svg>